<?xml version="1.0" standalone="no"?>
<!DOCTYPE svg PUBLIC "-//W3C//DTD SVG 20010904//EN"
 "http://www.w3.org/TR/2001/REC-SVG-20010904/DTD/svg10.dtd">
<svg version="1.0" xmlns="http://www.w3.org/2000/svg"
 width="500.000000pt" height="500.000000pt" viewBox="0 0 500.000000 500.000000"
 preserveAspectRatio="xMidYMid meet">
<metadata>
Created by potrace 1.14, written by Peter Selinger 2001-2017
</metadata>
<g transform="translate(0.000000,500.000000) scale(0.100000,-0.100000)"
fill="#000000" stroke="none">
<path d="M4319 4621 c-47 -52 -183 -197 -408 -436 -37 -38 -125 -133 -196
-210 -251 -272 -306 -325 -334 -325 -15 0 -43 -11 -64 -25 -20 -14 -37 -23
-37 -19 0 3 -11 -1 -25 -10 -14 -9 -25 -15 -25 -12 0 2 -34 -13 -75 -33 l-75
-38 -40 29 c-49 36 -84 41 -127 16 -29 -18 -154 -145 -363 -373 -41 -44 -115
-123 -164 -176 -50 -52 -136 -144 -191 -203 -55 -60 -118 -128 -140 -151 -22
-22 -83 -88 -135 -144 -52 -57 -113 -122 -135 -145 -63 -67 -283 -302 -360
-385 -38 -42 -86 -92 -105 -112 -19 -20 -57 -60 -85 -90 -27 -30 -107 -115
-176 -189 -69 -74 -137 -147 -151 -163 -30 -33 -39 -33 -64 -6 -34 37 -65 48
-103 35 -44 -14 -75 -56 -75 -102 0 -32 9 -45 82 -116 46 -44 82 -83 80 -88
-2 -4 -64 -72 -138 -151 -240 -256 -249 -264 -262 -251 -7 7 -26 12 -43 12
-37 0 -69 -30 -79 -75 -7 -28 0 -36 116 -148 221 -213 274 -258 309 -255 22 2
39 12 55 34 28 36 29 45 9 84 l-15 30 191 205 c106 113 194 205 196 205 3 0
41 -32 85 -72 71 -64 84 -72 123 -74 48 -2 79 18 96 63 16 42 10 64 -26 100
-19 19 -35 39 -35 45 0 8 220 248 486 528 39 41 101 109 139 150 38 41 107
116 154 165 47 50 111 118 141 151 30 32 118 127 195 209 77 83 198 213 270
290 71 77 162 174 201 215 39 41 102 109 141 150 38 41 117 125 174 187 117
124 137 162 114 216 -7 18 -23 41 -34 51 -25 22 -27 48 -7 84 8 15 29 68 47
117 18 50 36 94 41 100 4 5 8 24 8 43 0 28 12 46 73 111 39 42 101 108 136
146 36 39 105 113 155 166 50 53 136 144 191 204 55 60 128 138 161 173 47 50
76 93 123 189 34 69 60 127 58 130 -3 2 -29 -23 -58 -56z m-64 -140 c-8 -27
-52 -79 -199 -236 -67 -71 -192 -204 -276 -295 -85 -91 -183 -196 -219 -233
-37 -38 -70 -75 -74 -83 -4 -8 -15 -14 -22 -14 -33 0 -11 39 67 120 120 125
192 202 413 440 278 299 308 331 313 326 2 -3 1 -14 -3 -25z m-2416 -2368 c69
-65 165 -155 212 -200 47 -46 95 -90 107 -99 30 -21 28 -35 -12 -73 l-34 -33
-58 56 c-33 31 -62 56 -65 56 -3 0 -14 -9 -24 -20 -18 -20 -18 -22 43 -80 l61
-60 -86 -95 c-76 -84 -113 -112 -113 -87 0 4 -41 45 -90 91 -77 70 -95 82
-115 77 -36 -9 -31 -37 14 -77 52 -45 161 -150 161 -154 0 -2 -15 -19 -32 -37
-18 -19 -58 -61 -88 -94 -117 -126 -306 -329 -323 -347 -18 -18 -19 -18 -41 5
-35 37 -315 299 -382 359 -34 30 -65 60 -68 67 -3 7 112 138 287 325 160 172
339 363 396 425 57 62 108 112 114 112 5 0 66 -53 136 -117z m-931 -1026 c23
-23 42 -46 42 -50 0 -13 -373 -407 -385 -407 -16 0 -98 76 -94 87 7 19 374
412 384 412 6 1 30 -18 53 -42z m1 -209 c-57 -62 -109 -117 -115 -123 -6 -5
-47 -49 -92 -96 -49 -53 -85 -83 -92 -79 -7 4 -10 14 -8 23 1 8 88 106 192
217 169 180 191 200 204 186 14 -13 4 -27 -89 -128z m180 40 c25 -23 47 -46
49 -50 4 -8 -375 -418 -386 -418 -9 0 -102 93 -102 102 0 4 15 22 33 41 76 78
301 319 319 342 11 14 24 25 30 25 6 0 32 -19 57 -42z m-561 -305 c173 -159
252 -237 252 -250 0 -6 -9 -21 -19 -34 -16 -20 -23 -22 -45 -14 -38 15 -386
344 -386 366 0 23 26 49 51 49 11 0 75 -51 147 -117z"/>
<path d="M1665 2096 c-18 -20 -38 -36 -43 -36 -5 0 -15 -12 -22 -26 -8 -14
-27 -34 -41 -45 -15 -11 -37 -35 -49 -54 -12 -19 -28 -35 -36 -35 -8 0 -14 -4
-14 -9 0 -9 -25 -38 -134 -151 -23 -25 -51 -57 -61 -72 -9 -16 -22 -28 -29
-28 -6 0 -17 -9 -23 -19 -10 -17 -5 -28 36 -83 27 -34 58 -72 70 -82 26 -24
26 -28 -1 -71 -28 -43 -65 -61 -143 -69 -85 -10 -94 -14 -88 -36 3 -11 11 -20
17 -20 6 0 52 -40 101 -90 49 -49 92 -90 95 -90 3 0 11 32 17 71 12 77 28 106
85 152 l36 29 67 -55 c76 -63 84 -63 132 6 14 20 32 37 39 37 8 0 14 5 14 10
0 6 18 27 40 49 l40 38 -60 57 c-33 31 -64 56 -69 56 -20 0 -43 55 -43 103 0
41 4 54 23 68 28 22 39 23 91 7 25 -7 44 -21 53 -37 22 -41 125 -139 125 -118
0 10 7 20 15 23 8 3 30 26 50 50 33 39 34 45 18 51 -48 17 -63 44 -63 115 l0
68 37 15 37 16 -95 95 c-151 153 -173 164 -224 110z"/>
<path d="M2434 4509 c-23 -5 -54 -21 -69 -35 -24 -22 -27 -31 -22 -65 3 -22
18 -58 34 -80 63 -87 73 -112 73 -176 0 -34 -4 -64 -9 -67 -5 -4 -55 -11 -111
-16 -56 -6 -154 -24 -218 -40 -64 -17 -121 -30 -127 -30 -16 0 -55 64 -55 91
0 13 9 65 21 115 33 138 12 184 -84 184 -76 0 -142 -26 -193 -75 -70 -67 -57
-123 43 -180 63 -36 91 -62 113 -105 38 -74 36 -79 -75 -138 -103 -55 -204
-123 -266 -179 -20 -18 -44 -33 -52 -33 -9 0 -34 17 -56 38 -32 30 -40 46 -45
87 -20 160 -45 205 -112 205 -106 0 -243 -163 -206 -245 15 -32 55 -51 122
-60 87 -10 116 -23 159 -70 23 -25 41 -47 41 -51 0 -3 -28 -40 -62 -83 -73
-91 -134 -183 -177 -270 l-32 -63 -42 6 c-57 9 -81 27 -113 83 -70 124 -113
161 -169 147 -53 -13 -117 -114 -130 -207 -16 -109 45 -149 169 -112 69 21
113 19 175 -10 61 -29 59 -14 18 -164 -23 -83 -34 -142 -53 -298 -5 -40 -8
-43 -46 -54 -54 -14 -74 -8 -144 45 -129 96 -185 101 -227 20 -39 -75 -29
-218 19 -269 36 -39 84 -31 170 31 63 45 73 49 137 52 38 3 73 0 78 -5 6 -6
15 -54 20 -109 6 -54 25 -151 41 -214 16 -63 32 -125 35 -136 4 -16 -4 -27
-33 -45 -44 -27 -87 -28 -165 -5 -161 48 -229 -11 -184 -161 19 -64 67 -129
109 -150 32 -15 36 -15 68 4 18 10 42 34 53 52 49 79 83 118 125 139 66 33 86
30 111 -20 12 -24 23 -45 25 -47 2 -2 27 22 56 54 29 31 82 87 118 124 36 37
90 95 120 130 30 35 100 109 155 166 55 56 125 130 155 165 30 34 70 78 87 97
18 18 40 45 49 58 9 14 22 25 28 25 6 0 20 14 29 30 10 17 25 30 33 30 8 0 14
4 14 8 0 5 21 31 48 59 62 67 88 98 95 117 4 9 13 16 22 16 8 0 15 4 15 9 0 4
48 58 108 119 179 184 242 254 242 269 0 7 7 16 16 20 18 7 48 37 166 164 231
250 226 246 314 229 35 -7 69 -18 75 -26 17 -20 47 -17 59 6 7 13 21 20 38 20
16 0 37 7 48 15 10 8 25 15 32 15 7 0 33 14 57 30 24 17 55 30 69 30 14 0 37
11 53 24 l27 24 -84 55 c-47 30 -106 65 -133 78 -46 22 -47 24 -41 59 13 68
20 76 127 141 69 41 107 86 107 126 0 62 -129 145 -229 147 -97 2 -125 -43
-97 -154 9 -34 16 -81 16 -104 0 -49 -39 -132 -61 -130 -8 1 -54 14 -104 28
-96 28 -237 56 -289 56 -54 0 -74 11 -85 42 -18 51 -13 73 32 137 70 103 87
135 87 167 0 31 -24 60 -68 83 -31 16 -139 22 -188 10z"/>
<path d="M4395 4466 c-30 -30 -49 -98 -40 -145 27 -143 133 -143 160 0 13 69
-34 169 -80 169 -9 0 -27 -11 -40 -24z"/>
<path d="M3866 3925 c-9 -13 -33 -42 -53 -63 -74 -77 -119 -127 -143 -159 -13
-18 -29 -33 -35 -33 -6 0 -19 -13 -28 -30 -10 -16 -24 -30 -30 -30 -18 0 -47
-53 -47 -87 0 -15 -9 -41 -20 -58 -11 -16 -20 -41 -20 -55 0 -14 -7 -34 -15
-44 -8 -11 -15 -30 -15 -43 0 -13 -7 -34 -15 -47 -14 -21 -14 -24 0 -29 8 -4
15 -15 15 -25 0 -10 5 -23 11 -29 29 -29 3 -191 -32 -200 -10 -3 -19 -9 -19
-13 0 -4 -19 -28 -42 -53 -91 -95 -125 -133 -148 -164 -13 -18 -30 -33 -37
-33 -7 0 -13 -4 -13 -10 0 -5 -35 -45 -77 -88 -78 -79 -123 -130 -123 -138 0
-3 -29 -32 -63 -67 -35 -34 -72 -74 -82 -89 -9 -16 -21 -28 -27 -28 -5 0 -30
-23 -56 -50 -26 -28 -73 -78 -104 -111 -32 -33 -58 -67 -58 -76 0 -8 -9 -17
-20 -20 -11 -3 -20 -9 -20 -13 0 -4 -48 -57 -107 -118 -60 -61 -146 -152 -193
-203 -47 -50 -101 -108 -121 -129 -20 -20 -44 -49 -54 -63 -9 -15 -24 -27 -31
-27 -8 0 -14 -4 -14 -9 0 -6 -19 -30 -43 -54 -100 -106 -136 -146 -152 -171
-10 -14 -23 -26 -29 -26 -7 0 -19 -12 -26 -26 -8 -14 -27 -35 -42 -46 -15 -10
-28 -23 -28 -28 0 -4 30 -23 66 -41 l66 -34 -6 -43 c-8 -60 -24 -78 -118 -136
-97 -60 -126 -101 -107 -154 21 -61 133 -122 226 -123 50 -1 60 2 80 25 27 32
30 78 8 150 -8 27 -15 63 -15 80 0 32 40 129 58 140 6 3 50 -5 99 -19 99 -29
246 -55 313 -55 58 0 70 -8 81 -58 11 -51 2 -77 -55 -150 -57 -75 -66 -94 -66
-137 0 -49 36 -81 107 -95 107 -23 215 11 237 72 12 33 -3 69 -55 140 -48 64
-62 112 -52 175 l8 48 75 7 c97 10 249 42 338 72 65 23 71 23 85 8 38 -44 46
-95 27 -162 -33 -110 -29 -176 13 -205 78 -55 297 44 297 134 0 49 -13 65 -96
116 -65 41 -80 55 -100 99 -36 77 -33 91 29 122 71 36 186 115 262 179 l63 54
45 -29 c49 -31 59 -51 72 -160 14 -105 45 -150 105 -150 86 0 210 125 210 211
0 54 -31 77 -129 94 -45 8 -94 21 -110 29 -26 14 -91 85 -91 100 0 3 31 46 68
96 38 50 93 133 123 185 48 86 56 95 82 95 57 0 91 -27 141 -110 54 -92 85
-120 132 -120 70 0 143 104 152 216 4 58 3 64 -22 89 -25 25 -33 27 -79 22
-29 -3 -77 -11 -108 -18 -50 -11 -62 -11 -103 5 -25 10 -55 25 -66 34 l-21 17
20 57 c29 84 61 240 68 331 6 73 8 79 32 89 53 21 93 14 144 -22 109 -79 131
-90 169 -90 50 0 82 33 98 102 23 92 -3 200 -55 234 -34 22 -67 12 -153 -46
-81 -55 -119 -66 -183 -53 l-44 9 -7 84 c-9 103 -32 219 -63 319 -13 41 -23
76 -22 76 1 1 18 14 38 28 44 33 74 34 181 6 100 -26 148 -17 174 33 45 87
-53 288 -140 288 -43 0 -71 -22 -106 -84 -41 -73 -90 -116 -147 -132 -36 -9
-50 -9 -56 -1 -4 7 -36 60 -71 120 -35 59 -90 140 -122 179 l-57 71 19 35 c29
53 60 71 149 83 96 13 145 34 163 72 12 25 12 35 -4 75 -18 48 -88 132 -109
132 -7 0 -20 -11 -29 -25z"/>
</g>
</svg>
